<?xml version="1.0" standalone="no"?>
<!DOCTYPE svg PUBLIC "-//W3C//DTD SVG 20010904//EN"
 "http://www.w3.org/TR/2001/REC-SVG-20010904/DTD/svg10.dtd">
<svg version="1.0" xmlns="http://www.w3.org/2000/svg"
 width="362.000000pt" height="512.000000pt" viewBox="0 0 362.000000 512.000000"
 preserveAspectRatio="xMidYMid meet">

<g transform="translate(0.000000,512.000000) scale(0.100000,-0.100000)"
fill="#000000" stroke="none">
<path d="M0 2560 l0 -2560 1810 0 1810 0 0 2560 0 2560 -1810 0 -1810 0 0
-2560z m1340 105 c0 -40 -11 -45 -25 -12 -9 19 -19 22 -72 25 l-63 3 0 -61 0
-60 49 0 c39 0 52 4 64 23 15 21 16 20 16 -35 1 -63 -4 -72 -19 -33 -8 22 -15
25 -60 25 l-50 0 0 -54 c0 -81 4 -86 67 -86 48 0 57 3 84 32 31 35 36 30 18
-21 l-11 -31 -126 1 c-99 0 -122 3 -104 11 21 11 22 16 22 150 0 134 -1 139
-22 148 -16 6 18 9 105 9 l127 1 0 -35z m278 -115 c66 -155 77 -168 128 -156
24 6 24 7 24 145 l0 139 -27 10 c-22 8 -7 11 74 11 95 1 103 -1 132 -25 43
-36 42 -76 -4 -119 l-34 -33 40 -56 c23 -32 54 -63 72 -70 l32 -14 -51 -1 -51
-1 -49 70 c-63 90 -86 94 -82 13 3 -50 6 -59 28 -70 21 -11 3 -13 -119 -13
-122 0 -142 2 -127 13 17 12 17 16 2 50 -15 37 -15 37 -74 37 -53 0 -60 -2
-70 -25 -16 -36 -15 -52 6 -64 13 -8 3 -10 -42 -11 l-59 0 24 19 c15 11 48 74
84 160 33 77 65 141 70 141 6 0 39 -68 73 -150z m674 115 c5 -42 2 -43 -24
-10 -14 18 -29 25 -54 25 l-35 0 3 -137 c3 -135 3 -138 28 -150 22 -11 17 -13
-50 -12 -55 0 -69 3 -52 9 21 9 22 14 22 150 l0 140 -26 0 c-33 0 -64 -17 -64
-35 0 -8 -4 -15 -10 -15 -5 0 -10 16 -10 35 l0 35 134 0 134 0 4 -35z m141 25
c-21 -8 -23 -16 -23 -75 l0 -65 70 0 71 0 -3 62 c-3 55 -6 64 -28 75 -22 11
-16 13 55 12 66 0 75 -2 53 -11 l-28 -10 0 -138 0 -138 28 -10 c22 -9 13 -11
-53 -11 -71 -1 -77 1 -55 12 22 11 25 20 28 75 l3 62 -71 0 -70 0 0 -65 c0
-59 2 -67 23 -75 16 -6 2 -9 -53 -9 -55 0 -69 3 -52 9 21 9 22 13 22 150 0
137 -1 141 -22 150 -17 6 -3 9 52 9 55 0 69 -3 53 -9z"/>
<path d="M1820 2609 l0 -71 33 6 c88 17 86 136 -3 136 l-30 0 0 -71z"/>
<path d="M1508 2560 l-25 -55 45 -3 c24 -2 46 -1 48 1 2 2 -7 28 -20 58 l-24
54 -24 -55z"/>
</g>
</svg>
